<svg width="31" height="31" viewBox="0 0 31 31" fill="none" xmlns="http://www.w3.org/2000/svg">
<g clip-path="url(#clip0_306_618)">
<path d="M30.4073 28.8279L22.6723 21.0929C24.6816 18.6356 25.6695 15.5 25.4316 12.3347C25.1938 9.16938 23.7485 6.21658 21.3946 4.08705C19.0407 1.95752 15.9584 0.814177 12.7852 0.893518C9.61198 0.972858 6.59065 2.26881 4.34614 4.51332C2.10164 6.75782 0.805683 9.77916 0.726343 12.9524C0.647002 16.1256 1.79034 19.2079 3.91988 21.5618C6.04941 23.9157 9.0022 25.361 12.1675 25.5988C15.3328 25.8366 18.4684 24.8488 20.9257 22.8395L28.6607 30.5745L30.4073 28.8279ZM13.1142 23.1631C11.1598 23.1631 9.24925 22.5836 7.6242 21.4978C5.99915 20.4119 4.73258 18.8686 3.98465 17.063C3.23673 15.2573 3.04104 13.2704 3.42233 11.3536C3.80362 9.43668 4.74476 7.67592 6.12675 6.29393C7.50874 4.91194 9.2695 3.97079 11.1864 3.5895C13.1033 3.20821 15.0901 3.4039 16.8958 4.15183C18.7015 4.89976 20.2448 6.16633 21.3306 7.79137C22.4164 9.41642 22.996 11.327 22.996 13.2814C22.993 15.9013 21.951 18.413 20.0984 20.2656C18.2459 22.1181 15.7341 23.1602 13.1142 23.1631Z" fill="white"/>
</g>
<defs>
<clipPath id="clip0_306_618">
<rect width="29.6453" height="29.6453" fill="white" transform="translate(0.762268 0.928345)"/>
</clipPath>
</defs>
</svg>
