<svg width="31" height="34" viewBox="0 0 31 34" fill="none" xmlns="http://www.w3.org/2000/svg">
<g clip-path="url(#clip0_306_615)">
<path d="M15.5849 19.6659C14.6021 19.6659 13.6596 20.0888 12.9646 20.8417C12.2697 21.5946 11.8793 22.6157 11.8793 23.6804V33.0822H19.2906V23.6804C19.2906 22.6157 18.9002 21.5946 18.2052 20.8417C17.5103 20.0888 16.5677 19.6659 15.5849 19.6659Z" fill="white"/>
<path d="M17.2376 2.04697C16.784 1.60463 16.1953 1.35986 15.5849 1.35986C14.9746 1.35986 14.3858 1.60463 13.9322 2.04697L0.762268 14.8879V28.8047C0.762268 29.9404 1.17871 31.0296 1.91999 31.8326C2.66126 32.6357 3.66665 33.0868 4.71497 33.0868H9.40881V23.6809C9.40881 21.9064 10.0595 20.2046 11.2177 18.9498C12.376 17.6951 13.9469 16.9902 15.5849 16.9902C17.2229 16.9902 18.7938 17.6951 19.9521 18.9498C21.1103 20.2046 21.761 21.9064 21.761 23.6809V33.0828H26.4548C27.5032 33.0828 28.5086 32.6317 29.2498 31.8286C29.9911 31.0256 30.4076 29.9364 30.4076 28.8007V14.8839L17.2376 2.04697Z" fill="white"/>
</g>
<defs>
<clipPath id="clip0_306_615">
<rect width="29.6453" height="32.1157" fill="white" transform="translate(0.762268 0.932129)"/>
</clipPath>
</defs>
</svg>
