<svg width="38" height="38" viewBox="0 0 38 38" fill="none" xmlns="http://www.w3.org/2000/svg">
<path d="M0.0565796 1.56225C0.0565796 1.00997 0.504295 0.562256 1.05658 0.562256H36.1132C36.6655 0.562256 37.1132 1.00997 37.1132 1.56226V36.6189C37.1132 37.1711 36.6655 37.6189 36.1132 37.6189H1.05658C0.504293 37.6189 0.0565796 37.1711 0.0565796 36.6189V1.56225Z" fill="url(#paint0_linear_306_626)"/>
<g clip-path="url(#clip0_306_626)">
<path d="M21.233 14.3134C20.7288 14.3212 20.2356 14.4619 19.8032 14.7214C19.3708 14.9808 19.0145 15.3498 18.7703 15.791C18.5261 15.3498 18.1698 14.9808 17.7374 14.7214C17.305 14.4619 16.8118 14.3212 16.3076 14.3134C15.5038 14.3483 14.7465 14.6999 14.2012 15.2914C13.6558 15.8829 13.3667 16.6662 13.3971 17.4701C13.3971 20.5037 18.3028 24.0075 18.5115 24.1562L18.7703 24.3393L19.0291 24.1562C19.2377 24.0084 24.1435 20.5037 24.1435 17.4701C24.1738 16.6662 23.8847 15.8829 23.3394 15.2914C22.794 14.6999 22.0368 14.3483 21.233 14.3134Z" fill="white"/>
</g>
<defs>
<linearGradient id="paint0_linear_306_626" x1="0.0565796" y1="0.562256" x2="37.1132" y2="37.6189" gradientUnits="userSpaceOnUse">
<stop stop-color="#4000F4"/>
<stop offset="0.224829" stop-color="#603AED"/>
<stop offset="0.469313" stop-color="#7C6EE6"/>
<stop offset="0.657091" stop-color="#979FE1"/>
<stop offset="0.77684" stop-color="#A2B3DE"/>
<stop offset="0.889332" stop-color="#ADC8DC"/>
<stop offset="1" stop-color="#C0ECD7"/>
</linearGradient>
<clipPath id="clip0_306_626">
<path d="M13.397 14.9027C13.397 14.3504 13.8447 13.9027 14.397 13.9027H23.1434C23.6957 13.9027 24.1434 14.3504 24.1434 14.9027V23.6491C24.1434 24.2014 23.6957 24.6491 23.1434 24.6491H14.397C13.8447 24.6491 13.397 24.2014 13.397 23.6491V14.9027Z" fill="white"/>
</clipPath>
</defs>
</svg>
