<svg width="20" height="18" viewBox="0 0 20 18" fill="none" xmlns="http://www.w3.org/2000/svg">
<path d="M4.63432 15.7873C3.53306 14.686 2.78309 13.2829 2.47926 11.7554C2.17543 10.2279 2.33137 8.64462 2.92738 7.20574C3.52339 5.76687 4.53269 4.53704 5.82764 3.67178C7.1226 2.80652 8.64506 2.34469 10.2025 2.34469C11.7599 2.34469 13.2824 2.80652 14.5773 3.67178C15.8723 4.53704 16.8816 5.76687 17.4776 7.20574C18.0736 8.64462 18.2296 10.2279 17.9257 11.7554C17.6219 13.2829 16.8719 14.686 15.7707 15.7873L17.0078 17.0245C17.9029 16.1318 18.6127 15.071 19.0965 13.9031C19.5803 12.7352 19.8285 11.4833 19.8269 10.2192C19.8269 4.90384 15.5178 0.594727 10.2025 0.594727C4.88718 0.594727 0.578064 4.90384 0.578064 10.2192C0.578064 12.8772 1.65512 15.2833 3.39715 17.0245L4.63432 15.7873Z" fill="#159643"/>
<path d="M14.5335 14.5502C15.39 13.6936 15.9732 12.6023 16.2095 11.4142C16.4458 10.2262 16.3245 8.99476 15.8609 7.87566C15.3973 6.75657 14.6123 5.80007 13.6051 5.12711C12.5979 4.45416 11.4138 4.09497 10.2025 4.09497C8.9912 4.09497 7.8071 4.45416 6.79992 5.12711C5.79274 5.80007 5.00773 6.75657 4.54415 7.87566C4.08058 8.99476 3.95925 10.2262 4.19552 11.4142C4.43179 12.6023 5.01504 13.6936 5.87153 14.5502L7.10958 13.313C6.49775 12.7012 6.08109 11.9217 5.91228 11.073C5.74347 10.2244 5.8301 9.3448 6.16122 8.54542C6.49233 7.74604 7.05305 7.06279 7.77247 6.58208C8.49189 6.10138 9.33771 5.8448 10.203 5.8448C11.0682 5.8448 11.914 6.10138 12.6334 6.58208C13.3529 7.06279 13.9136 7.74604 14.2447 8.54542C14.5758 9.3448 14.6624 10.2244 14.4936 11.073C14.3248 11.9217 13.9082 12.7012 13.2963 13.313L14.5335 14.5502Z" fill="#159643"/>
<path d="M12.0583 12.075C12.4253 11.7079 12.6752 11.2402 12.7765 10.731C12.8777 10.2218 12.8257 9.6941 12.627 9.21449C12.4284 8.73489 12.0919 8.32498 11.6603 8.03657C11.2286 7.74817 10.7212 7.59424 10.2021 7.59424C9.68293 7.59424 9.17546 7.74817 8.74382 8.03657C8.31217 8.32498 7.97574 8.73489 7.77706 9.21449C7.57838 9.6941 7.52637 10.2218 7.62761 10.731C7.72886 11.2402 7.97881 11.7079 8.34585 12.075L9.5839 10.8378C9.46151 10.7154 9.37816 10.5595 9.34437 10.3898C9.31059 10.2201 9.32791 10.0441 9.39412 9.88425C9.46034 9.72436 9.57248 9.5877 9.71637 9.49154C9.86026 9.39539 10.0294 9.34407 10.2025 9.34407C10.3756 9.34407 10.5447 9.39539 10.6886 9.49154C10.8325 9.5877 10.9446 9.72436 11.0109 9.88425C11.0771 10.0441 11.0944 10.2201 11.0606 10.3898C11.0268 10.5595 10.9435 10.7154 10.8211 10.8378L12.0583 12.075Z" fill="#159643"/>
</svg>
