<svg width="12" height="11" viewBox="0 0 12 11" fill="none" xmlns="http://www.w3.org/2000/svg">
<path d="M8.23299 0.313354C7.72879 0.321197 7.23557 0.461948 6.80317 0.721392C6.37076 0.980836 6.01447 1.34979 5.77027 1.79099C5.52608 1.34979 5.16979 0.980836 4.73738 0.721392C4.30497 0.461948 3.81176 0.321197 3.30755 0.313354C2.50378 0.348276 1.7465 0.699891 1.20116 1.29138C0.655812 1.88287 0.366729 2.66616 0.397065 3.47011C0.397065 6.50374 5.3028 10.0075 5.51146 10.1562L5.77027 10.3393L6.02908 10.1562C6.23774 10.0084 11.1435 6.50374 11.1435 3.47011C11.1738 2.66616 10.8847 1.88287 10.3394 1.29138C9.79404 0.699891 9.03676 0.348276 8.23299 0.313354Z" fill="white"/>
</svg>
